<svg width="16" height="11" viewBox="0 0 16 11" fill="none" xmlns="http://www.w3.org/2000/svg">
<path d="M12.7086 3.37134L15.1086 0.955021L14.1714 0L11.5429 2.65795C10.4452 2.09527 9.23174 1.79969 8 1.79498C6.77171 1.79805 5.56158 2.09376 4.46857 2.65795L1.82857 0L0.891429 0.955021L3.29143 3.37134C2.27638 4.11533 1.44951 5.08942 0.877707 6.21481C0.305907 7.3402 0.00523041 8.58529 0 9.84937V11H16V9.84937C15.9948 8.58529 15.6941 7.3402 15.1223 6.21481C14.5505 5.08942 13.7236 4.11533 12.7086 3.37134ZM4.57143 8.69874C4.34539 8.69874 4.12443 8.63126 3.93649 8.50483C3.74855 8.3784 3.60207 8.19869 3.51557 7.98844C3.42907 7.77819 3.40643 7.54684 3.45053 7.32364C3.49463 7.10044 3.60348 6.89542 3.76331 6.7345C3.92314 6.57358 4.12678 6.464 4.34847 6.4196C4.57016 6.3752 4.79995 6.39799 5.00878 6.48508C5.21761 6.57216 5.3961 6.71964 5.52168 6.90886C5.64726 7.09808 5.71429 7.32054 5.71429 7.54812C5.71429 7.85328 5.59388 8.14595 5.37955 8.36173C5.16522 8.57752 4.87453 8.69874 4.57143 8.69874ZM11.4286 8.69874C11.2025 8.69874 10.9816 8.63126 10.7936 8.50483C10.6057 8.3784 10.4592 8.19869 10.3727 7.98844C10.2862 7.77819 10.2636 7.54684 10.3077 7.32364C10.3518 7.10044 10.4606 6.89542 10.6205 6.7345C10.7803 6.57358 10.9839 6.464 11.2056 6.4196C11.4273 6.3752 11.6571 6.39799 11.8659 6.48508C12.0748 6.57216 12.2532 6.71964 12.3788 6.90886C12.5044 7.09808 12.5714 7.32054 12.5714 7.54812C12.5714 7.85328 12.451 8.14595 12.2367 8.36173C12.0224 8.57752 11.7317 8.69874 11.4286 8.69874Z" fill="#171717"/>
</svg>
